<svg xmlns="http://www.w3.org/2000/svg" width="1240" height="1240" viewBox="0 0 1240 1240" version="1.1">
	<rect x="0" y="0" width="100%" height="100%" fill="#000074" />
	<path d="M 617.980 136.500 C 617.970 136.775, 617.961 147.350, 617.961 160 C 617.961 172.650, 617.970 183.450, 617.980 184 C 617.991 184.550, 620.025 185, 622.500 185 L 627 185 627 160.500 L 627 136 622.500 136 C 620.025 136, 617.991 136.225, 617.980 136.500 M 521 144.563 C 516.875 145.284, 513.388 145.903, 513.250 145.937 C 512.648 146.088, 513.072 150.739, 513.750 151.416 C 514.163 151.829, 514.562 153.141, 514.639 154.333 C 514.715 155.525, 515.299 159.079, 515.936 162.232 C 516.573 165.385, 517.303 169.885, 517.558 172.232 C 518.028 176.551, 520.275 190.048, 522.156 199.850 L 523.183 205.200 527.842 204.501 C 530.404 204.117, 533.258 203.397, 534.184 202.901 C 535.111 202.406, 537.262 202, 538.966 202 C 540.669 202, 542.297 201.390, 542.583 200.645 C 542.869 199.900, 541.767 191.013, 540.135 180.895 C 538.504 170.778, 536.850 160.043, 536.462 157.040 C 536.073 154.037, 535.387 150.887, 534.938 150.040 C 534.488 149.193, 533.860 147.262, 533.541 145.750 C 532.877 142.599, 532.458 142.560, 521 144.563 M 711.240 145.373 C 710.645 146.677, 709.188 154.215, 708.001 162.123 C 706.814 170.030, 705.449 177.400, 704.968 178.500 C 703.752 181.277, 700.945 200.102, 701.591 201.147 C 701.881 201.616, 704.026 202, 706.359 202 C 708.692 202, 711.027 202.392, 711.550 202.872 C 713.283 204.463, 721.005 205.156, 721.514 203.766 C 722.246 201.764, 725.121 183.766, 725.150 181 C 725.165 179.625, 725.545 178.050, 725.996 177.500 C 726.447 176.950, 727.569 171.325, 728.489 165 C 729.409 158.675, 730.575 153.072, 731.081 152.550 C 732.409 151.178, 732.210 147.408, 730.750 146.271 C 729.623 145.393, 717.162 143, 713.718 143 C 712.950 143, 711.835 144.068, 711.240 145.373 M 426.750 170.203 C 422.315 171.381, 422.311 171.410, 425.430 179.329 C 426.766 182.723, 428.378 187.484, 429.011 189.910 C 429.645 192.335, 430.765 195.260, 431.500 196.410 C 432.236 197.559, 433.345 200.525, 433.966 203 C 434.587 205.475, 436.072 209.621, 437.267 212.214 C 439.551 217.173, 439.523 217.163, 446.250 215.340 C 448.350 214.770, 448.490 212.725, 446.635 209.715 C 445.884 208.497, 444.691 205.250, 443.983 202.500 C 443.275 199.750, 442.139 196.825, 441.459 196 C 440.779 195.175, 439.903 192.925, 439.513 191 C 439.123 189.075, 438.241 186.600, 437.553 185.500 C 436.866 184.400, 435.726 181.025, 435.020 178 C 433.612 171.970, 432.318 168.944, 431.215 169.103 C 430.822 169.160, 428.813 169.655, 426.750 170.203 M 811.448 174.250 C 810.506 177.137, 809.390 179.950, 808.968 180.500 C 808.546 181.050, 806.962 185.550, 805.448 190.500 C 803.934 195.450, 802.384 199.950, 802.003 200.500 C 801.622 201.050, 800.729 203.649, 800.018 206.276 C 799.307 208.902, 798.337 211.291, 797.863 211.585 C 796.260 212.576, 796.986 213.743, 800.162 215.282 C 804.133 217.205, 805.511 216.680, 806.997 212.678 C 807.646 210.930, 808.751 208.375, 809.453 207 C 810.154 205.625, 811.035 203.150, 811.410 201.500 C 812.060 198.644, 815.851 187.931, 818.489 181.500 C 822.936 170.655, 822.951 171.358, 818.250 170.053 C 816.188 169.480, 814.199 169.009, 813.830 169.006 C 813.462 169.003, 812.390 171.363, 811.448 174.250 M 342.978 209.101 C 341.615 210.176, 339.150 211.734, 337.500 212.564 C 330.849 215.908, 329 217.165, 329 218.343 C 329 219.825, 332.370 226.586, 334.246 228.869 C 334.983 229.766, 336.241 231.850, 337.042 233.500 C 337.842 235.150, 338.723 236.725, 338.998 237 C 339.274 237.275, 340.378 239.300, 341.450 241.500 C 342.523 243.700, 343.938 246.175, 344.594 247 C 345.733 248.432, 352.136 259.934, 355.557 266.692 L 357.173 269.885 360.837 268.192 C 362.851 267.262, 364.725 266.213, 365 265.863 C 365.275 265.513, 367.037 264.370, 368.915 263.324 C 374.139 260.416, 374.506 259.179, 371.910 253.233 C 370.654 250.355, 369.315 248, 368.936 248 C 368.557 248, 367.289 245.776, 366.120 243.057 C 364.950 240.338, 363.588 237.863, 363.092 237.557 C 362.597 237.251, 360.686 233.963, 358.846 230.250 C 357.006 226.538, 354.958 223.050, 354.295 222.500 C 353.632 221.950, 352.596 220.375, 351.993 219 C 351.390 217.625, 349.672 214.396, 348.176 211.824 L 345.457 207.147 342.978 209.101 M 894.848 214.505 C 892.457 218.688, 889.295 224.223, 887.822 226.805 C 886.348 229.387, 884.323 232.902, 883.322 234.616 C 882.320 236.330, 880.252 239.930, 878.726 242.616 C 875.359 248.544, 872.552 253.227, 870.389 256.528 C 869.499 257.888, 869.203 259, 869.732 259 C 870.261 259, 871.732 259.900, 873 261 C 874.268 262.100, 875.832 263, 876.475 263 C 877.118 263, 879.411 264.337, 881.572 265.972 C 883.732 267.607, 885.824 268.957, 886.219 268.972 C 887.041 269.004, 894 258.400, 894 257.115 C 894 256.650, 894.831 255.197, 895.847 253.885 C 896.863 252.573, 899.501 248.125, 901.710 244 C 903.919 239.875, 907.120 234.250, 908.825 231.500 C 914.257 222.734, 916.235 217.989, 915.051 216.562 C 914.464 215.854, 911.819 214.153, 909.174 212.780 C 906.528 211.408, 903.201 209.523, 901.780 208.592 L 899.196 206.898 894.848 214.505 M 617.232 262 C 617.232 263.925, 617.438 264.712, 617.689 263.750 C 617.941 262.788, 617.941 261.212, 617.689 260.250 C 617.438 259.288, 617.232 260.075, 617.232 262 M 616.664 301.580 C 616.299 320.691, 615.998 404.541, 615.995 487.913 C 615.993 571.286, 615.699 644.563, 615.343 650.750 C 614.711 661.704, 614.633 662, 612.347 662 C 611.056 662, 610 662.480, 610 663.067 C 610 663.680, 609.147 663.864, 608 663.500 C 606.900 663.151, 606 663.300, 606 663.832 C 606 664.364, 603.694 665.628, 600.876 666.642 C 598.057 667.655, 595.520 669.088, 595.237 669.826 C 594.953 670.564, 593.933 671.467, 592.968 671.834 C 590.375 672.819, 583.648 681.365, 580.377 687.831 C 577.857 692.811, 577.470 694.795, 577.140 704.432 C 576.763 715.453, 578.100 725.099, 580.407 728 C 581.062 728.825, 582.477 731.226, 583.550 733.336 C 584.622 735.446, 586.288 737.599, 587.250 738.121 C 588.212 738.643, 589 739.718, 589 740.510 C 589 741.301, 590.462 742.696, 592.250 743.610 C 594.038 744.523, 595.860 745.885, 596.300 746.635 C 596.740 747.386, 597.640 748.003, 598.300 748.006 C 598.960 748.010, 600.820 748.701, 602.434 749.542 C 604.048 750.384, 605.984 750.836, 606.736 750.548 C 607.488 750.259, 607.848 750.437, 607.536 750.942 C 606.591 752.471, 608.982 753.260, 610.568 751.944 C 611.382 751.268, 612.337 751.004, 612.691 751.357 C 613.044 751.711, 612.782 752, 612.108 752 C 611.434 752, 611.160 752.450, 611.500 753 C 611.845 753.558, 616.510 754, 622.059 754 C 630.562 754, 632 753.765, 632 752.378 C 632 751.049, 632.271 750.980, 633.500 752 C 634.505 752.834, 635.412 752.921, 636.250 752.263 C 636.938 751.723, 639.638 750.482, 642.250 749.505 C 644.862 748.528, 647 747.370, 647 746.932 C 647 746.493, 647.861 745.862, 648.913 745.528 C 653.790 743.980, 665.077 729.004, 665.222 723.888 C 665.266 722.337, 665.732 721.335, 666.258 721.660 C 666.840 722.019, 666.946 721.029, 666.527 719.125 C 666.090 717.131, 666.232 716, 666.921 716 C 667.608 716, 668 712.917, 668 707.500 C 668 702.394, 667.593 699, 666.981 699 C 666.378 699, 666.233 697.918, 666.627 696.351 C 667.124 694.370, 666.976 693.897, 666.039 694.476 C 665.127 695.040, 664.964 694.690, 665.439 693.192 C 666.208 690.769, 660.554 680, 658.513 680 C 657.800 680, 656.949 678.934, 656.622 677.630 C 655.611 673.603, 641.463 663.978, 638.891 665.567 C 638.374 665.887, 638.074 665.553, 638.225 664.824 C 638.378 664.089, 637.722 663.562, 636.750 663.639 C 635.788 663.715, 635 663.378, 635 662.889 C 635 662.400, 633.912 662, 632.582 662 C 626.994 662, 627 662.017, 627 645.334 C 627 635.407, 626.647 630.100, 626.011 630.493 C 625.430 630.852, 625.286 630.417, 625.663 629.436 C 626.611 626.966, 623.877 491.689, 622.852 490.383 C 622.370 489.769, 622.068 481.894, 622.180 472.883 C 622.292 463.872, 622.059 447.950, 621.663 437.500 C 621.266 427.050, 620.760 403.200, 620.539 384.500 C 619.722 315.594, 618.731 269.465, 618.038 268.167 C 617.647 267.433, 617.028 282.469, 616.664 301.580 M 984.272 268.728 C 983.171 269.703, 979.506 273.875, 976.130 278 C 972.753 282.125, 968.821 286.850, 967.391 288.500 C 954.974 302.831, 954.817 303.155, 958.456 306.955 L 961.264 309.885 965.088 305.692 C 970.829 299.400, 971.120 299.059, 976.342 292.543 C 979.005 289.219, 983.730 283.650, 986.842 280.167 C 989.954 276.684, 992.500 273.366, 992.500 272.795 C 992.500 272.224, 991.100 270.676, 989.388 269.356 C 986.393 267.047, 986.200 267.023, 984.272 268.728 M 255.869 269.510 C 250.954 272.180, 251.617 274.020, 260.950 283.605 C 262.078 284.763, 263 286.125, 263 286.633 C 263 287.140, 264.238 288.728, 265.750 290.161 C 267.262 291.595, 269.625 294.234, 271 296.026 C 272.375 297.818, 275.188 301.272, 277.250 303.703 C 279.313 306.133, 281 308.544, 281 309.061 C 281 310.717, 283.016 310.072, 286.480 307.308 C 289.697 304.742, 289.788 304.491, 288.448 301.899 C 287.675 300.404, 286.688 299.028, 286.255 298.840 C 285.823 298.653, 282.872 295.350, 279.699 291.500 C 274.342 285.001, 270.861 280.815, 265.275 274.153 C 259.315 267.045, 259.886 267.327, 255.869 269.510 M 849 319 C 849 319.550, 849.450 320, 850 320 C 850.550 320, 851 319.550, 851 319 C 851 318.450, 850.550 318, 850 318 C 849.450 318, 849 318.450, 849 319 M 1051.509 333.985 C 1051.175 334.526, 1047.211 337.935, 1042.700 341.559 C 1038.190 345.183, 1034.140 348.790, 1033.700 349.574 C 1033.260 350.358, 1032.348 351, 1031.673 351 C 1030.998 351, 1029.254 352.238, 1027.798 353.750 C 1026.341 355.262, 1023.879 357.515, 1022.325 358.756 C 1020.771 359.997, 1018.150 362.189, 1016.500 363.627 C 1014.850 365.066, 1012.487 366.915, 1011.250 367.736 C 1008.061 369.853, 1008.403 371.261, 1013.500 377 C 1015.975 379.787, 1018 382.393, 1018 382.793 C 1018 383.192, 1018.979 384.131, 1020.177 384.878 C 1022.028 386.034, 1022.514 386.021, 1023.427 384.791 C 1024.017 383.996, 1029.479 379.312, 1035.566 374.384 C 1041.652 369.456, 1047.429 364.766, 1048.404 363.962 C 1051.127 361.718, 1057.215 356.213, 1060.011 353.466 C 1061.392 352.110, 1063.049 351, 1063.693 351 C 1066.245 351, 1066.141 347.065, 1063.516 344.272 C 1062.083 342.747, 1059.468 339.601, 1057.705 337.281 C 1054.518 333.085, 1052.672 332.103, 1051.509 333.985 M 189.028 336.315 C 184.482 340.943, 180 347.270, 180 349.059 C 180 350.088, 180.820 351.369, 181.823 351.905 C 182.825 352.442, 185.417 354.595, 187.582 356.690 C 189.748 358.786, 193.196 361.850, 195.246 363.500 C 197.295 365.150, 200.258 367.625, 201.831 369 C 203.403 370.375, 207.235 373.480, 210.345 375.899 C 213.455 378.319, 216 380.693, 216 381.174 C 216 381.656, 217.137 382.482, 218.526 383.010 C 219.915 383.538, 221.313 384.652, 221.633 385.485 C 222.306 387.239, 226 387.557, 226 385.861 C 226 385.234, 228.441 381.942, 231.424 378.544 L 236.848 372.366 234.019 369.433 C 232.463 367.820, 229.267 364.925, 226.916 363 C 218.351 355.985, 211.482 349.809, 210.700 348.421 C 210.260 347.639, 209.443 347, 208.883 347 C 207.743 347, 201.105 341.868, 197.115 337.901 C 193.348 334.156, 191.504 333.795, 189.028 336.315 M 577.500 341.195 C 574.622 342.827, 573.906 344.186, 574.530 346.834 C 574.878 348.309, 574.698 348.931, 574.040 348.525 C 573.468 348.171, 573 348.610, 573 349.500 C 573 350.390, 573.468 350.829, 574.040 350.475 C 574.709 350.062, 574.859 350.714, 574.460 352.302 C 572.802 358.908, 585.296 362.756, 591.288 357.483 C 593.962 355.131, 594.576 352.590, 594.116 345.789 C 593.784 340.894, 583.194 337.966, 577.500 341.195 M 650.557 341.937 C 649.593 343.002, 649.071 344.305, 649.396 344.832 C 649.722 345.359, 649.316 346.048, 648.494 346.364 C 646.844 346.997, 646.405 352, 648 352 C 648.550 352, 649 352.830, 649 353.845 C 649 356.814, 652.618 359.257, 657.740 359.747 C 663.415 360.289, 668.660 356.656, 667.496 352.989 C 667.136 351.852, 667.322 351, 667.933 351 C 668.520 351, 669 350.100, 669 349 C 669 347.900, 668.564 347, 668.031 347 C 667.499 347, 667.350 346.251, 667.701 345.336 C 668.128 344.225, 667.955 343.910, 667.181 344.388 C 666.437 344.848, 666.225 344.576, 666.589 343.629 C 668.043 339.839, 653.814 338.338, 650.557 341.937 M 726.500 354.950 C 723.302 356.267, 720 361.567, 720 365.382 C 720 369.597, 726.633 376, 731 376 C 732.583 376, 735.314 374.567, 737.820 372.422 C 741.342 369.407, 741.994 368.266, 741.964 365.172 C 741.890 357.644, 733.472 352.079, 726.500 354.950 M 504.555 357.375 C 500.217 360.833, 500.072 373, 504.368 373 C 505.148 373, 506.045 373.675, 506.362 374.500 C 507.079 376.370, 514.413 376.549, 516.614 374.750 C 521.539 370.725, 522 369.923, 522 365.385 C 522 361.620, 521.493 360.311, 519.250 358.280 C 515.448 354.837, 508.290 354.396, 504.555 357.375 M 563.835 379.973 C 563.061 382.247, 564.191 402, 565.065 401.460 C 566.273 400.713, 566.292 380.298, 565.085 379.553 C 564.582 379.242, 564.020 379.431, 563.835 379.973 M 579 380.161 C 579 380.622, 580.875 381, 583.167 381 C 585.458 381, 587.010 380.676, 586.614 380.281 C 585.590 379.257, 579 379.153, 579 380.161 M 598.584 381.641 C 598.057 383.014, 598.204 383.076, 599.477 382.019 C 601.212 380.579, 601.393 380, 600.107 380 C 599.616 380, 598.931 380.739, 598.584 381.641 M 606.007 383.512 C 608.350 387.683, 608.580 394.649, 606.468 397.441 C 604.435 400.130, 604.452 402.699, 606.493 401.006 C 610.780 397.448, 610.756 384.381, 606.458 381.564 L 604.013 379.962 606.007 383.512 M 791.719 387.092 C 788.979 389.380, 788.615 390.293, 788.615 394.872 C 788.615 401.708, 790.888 404.091, 798.063 404.780 C 801.800 405.139, 803.093 404.960, 802.594 404.153 C 802.177 403.478, 802.420 403.215, 803.198 403.501 C 805.109 404.202, 806.489 402.959, 808.462 398.758 C 810.169 395.125, 809.949 391.295, 808.100 392.438 C 807.598 392.749, 807.411 392.146, 807.684 391.099 C 808.379 388.442, 803.114 384.731, 798.465 384.601 C 795.908 384.530, 793.898 385.272, 791.719 387.092 M 440.295 386.107 C 435.996 387.350, 434 390.498, 434 396.031 C 434 400.965, 434.971 402.694, 439.215 405.320 C 442.970 407.644, 445.393 407.430, 450.021 404.367 C 453.879 401.814, 454 401.564, 453.985 396.117 C 453.976 393.028, 453.639 390.005, 453.235 389.400 C 452.130 387.746, 448.084 385.830, 447.048 386.470 C 446.548 386.779, 445.856 386.575, 445.510 386.016 C 444.791 384.852, 444.626 384.855, 440.295 386.107 M 595.607 386.582 C 594.263 390.083, 595.021 395.718, 597.156 398.097 C 598.925 400.069, 599.152 400.141, 598.419 398.500 C 597.928 397.400, 597.521 393.912, 597.513 390.750 C 597.500 385.067, 596.787 383.507, 595.607 386.582 M 741.356 396.781 C 737.472 399.897, 736.340 410.847, 739.584 413.931 C 741.101 415.374, 741.144 415.325, 740.117 413.316 C 738.919 410.972, 738.650 403.907, 739.622 400.283 C 740.539 396.862, 746.438 395.538, 748.235 398.350 C 749.745 400.714, 749.082 413.252, 747.345 415.171 C 746.396 416.220, 746.172 417, 746.819 417 C 750.709 417, 752.459 400.926, 748.934 397.577 C 746.496 395.261, 743.627 394.960, 741.356 396.781 M 705.711 396.800 C 706.487 397.294, 707.041 401.150, 707.252 407.535 L 707.581 417.500 707.791 406.750 C 707.979 397.094, 707.822 396.002, 706.250 396.015 C 705.048 396.026, 704.879 396.272, 705.711 396.800 M 726.729 397.132 C 725.778 397.664, 724.999 398.640, 724.999 399.300 C 724.998 399.960, 723.873 401.807, 722.499 403.406 C 721.124 405.004, 720.014 406.579, 720.032 406.906 C 720.049 407.232, 721.209 406.150, 722.609 404.500 C 724.009 402.850, 726.294 400.544, 727.686 399.376 C 730.361 397.131, 729.662 395.491, 726.729 397.132 M 578.242 400.966 C 577.024 402.935, 577.184 402.994, 583.242 402.820 C 588.793 402.660, 588.971 402.597, 584.813 402.268 C 581.701 402.021, 580.021 401.398, 579.813 400.414 C 579.573 399.277, 579.207 399.406, 578.242 400.966 M 718.400 409.162 C 718.151 409.564, 720.322 410.030, 723.224 410.197 L 728.500 410.500 728.186 413.750 C 728 415.676, 728.330 417, 728.996 417 C 729.684 417, 730 415.544, 729.810 413.250 C 729.500 409.502, 729.496 409.500, 724.176 408.965 C 721.248 408.671, 718.648 408.760, 718.400 409.162 M 1106.994 422.548 C 1102.872 424.961, 1098.600 427.353, 1097.500 427.861 C 1096.400 428.370, 1092.575 430.640, 1089 432.906 C 1085.425 435.171, 1080.637 437.882, 1078.360 438.929 C 1073.045 441.375, 1072.702 442.043, 1074.520 446.394 C 1076.430 450.965, 1079.702 450.919, 1084.783 446.250 C 1085.531 445.563, 1086.592 445, 1087.141 445 C 1087.690 445, 1090.021 443.708, 1092.320 442.128 C 1096.061 439.557, 1103.821 435.126, 1115.500 428.890 C 1120.655 426.137, 1120.500 426.357, 1118.619 424.476 C 1117.729 423.586, 1117 422.269, 1117 421.551 C 1117 417.952, 1114.398 418.212, 1106.994 422.548 M 128.199 422.688 C 125.828 426.401, 125.884 429, 128.334 429 C 129.102 429, 130.929 429.943, 132.394 431.095 C 133.859 432.248, 138.082 434.779, 141.779 436.720 C 145.476 438.661, 149.210 440.868, 150.079 441.625 C 150.947 442.381, 152.117 443, 152.679 443 C 153.240 443, 155.455 444.246, 157.600 445.770 C 165.809 451.599, 168.159 451.584, 170.770 445.686 C 172.385 442.038, 170.819 440.578, 159.294 434.986 C 156.981 433.864, 154.506 432.395, 153.794 431.723 C 153.082 431.050, 150.475 429.497, 148 428.270 C 140.481 424.544, 135.542 421.566, 134.700 420.250 C 133.260 417.999, 130.543 419.018, 128.199 422.688 M 314.300 429 C 314.300 432.025, 314.487 433.262, 314.716 431.750 C 314.945 430.238, 314.945 427.762, 314.716 426.250 C 314.487 424.738, 314.300 425.975, 314.300 429 M 479.242 427.494 C 477.431 428.281, 475.544 430.069, 474.992 431.520 C 473.680 434.971, 473.686 443.312, 475 442.500 C 475.550 442.160, 476.006 439.996, 476.014 437.691 C 476.035 431.002, 476.931 428.964, 480.130 428.324 C 481.708 428.008, 483 427.356, 483 426.875 C 483 425.806, 483.202 425.773, 479.242 427.494 M 983 429 C 983 430.650, 983.450 432, 984 432 C 984.550 432, 985 430.650, 985 429 C 985 427.350, 984.550 426, 984 426 C 983.450 426, 983 427.350, 983 429 M 442 428 C 440.712 428.833, 440.742 428.972, 442.214 428.985 C 443.691 428.998, 443.973 430.344, 444.254 438.750 L 444.581 448.500 444.791 437.750 C 445.001 426.971, 444.781 426.203, 442 428 M 462 427.732 C 463.375 427.985, 465.175 428.711, 466 429.346 C 467.305 430.350, 467.322 430.273, 466.128 428.750 C 465.371 427.785, 463.576 427.061, 462.128 427.136 L 459.500 427.272 462 427.732 M 856 428.927 C 856 429.582, 855.520 429.821, 854.933 429.459 C 852.707 428.083, 848.057 434.240, 848.028 438.604 C 847.996 443.297, 851.798 448.381, 855.460 448.542 C 856.638 448.593, 858.141 448.969, 858.800 449.377 C 859.460 449.784, 860 449.684, 860 449.153 C 860 448.622, 860.846 448.409, 861.880 448.679 C 865.210 449.550, 869 444.299, 869 438.816 C 869 432.567, 866.107 429.092, 860.248 428.306 C 857.310 427.912, 856 428.104, 856 428.927 M 381.357 430.488 C 381.926 431.970, 381.793 432.073, 380.593 431.077 C 379.412 430.097, 378.567 430.472, 376.070 433.084 C 371.864 437.485, 371.858 442.304, 376.053 446.897 C 378.959 450.079, 379.375 450.217, 384.719 449.773 C 391.831 449.184, 394 446.886, 394 439.945 C 394 433.489, 391.166 430.100, 385.082 429.284 C 381.126 428.754, 380.739 428.878, 381.357 430.488 M 456 434 C 456 435.100, 456.173 436, 456.383 436 C 456.594 436, 457.002 435.100, 457.290 434 C 457.577 432.900, 457.405 432, 456.906 432 C 456.408 432, 456 432.900, 456 434 M 486.667 432.667 C 485.751 433.582, 485.822 441.772, 486.750 442.345 C 487.163 442.599, 487.543 440.376, 487.595 437.404 C 487.648 434.432, 487.610 432, 487.512 432 C 487.414 432, 487.033 432.300, 486.667 432.667 M 468 437.500 C 468 439.425, 468.450 441, 469 441 C 469.550 441, 470 439.425, 470 437.500 C 470 435.575, 469.550 434, 469 434 C 468.450 434, 468 435.575, 468 437.500 M 456 442 C 456 443.100, 456.408 444, 456.906 444 C 457.405 444, 457.577 443.100, 457.290 442 C 457.002 440.900, 456.594 440, 456.383 440 C 456.173 440, 456 440.900, 456 442 M 466 443.918 C 466 444.423, 465.714 445.661, 465.365 446.668 C 464.808 448.278, 464.925 448.258, 466.334 446.500 C 468.191 444.182, 468.416 443, 467 443 C 466.450 443, 466 443.413, 466 443.918 M 476.239 446.011 C 477.554 448.116, 480.728 449.605, 481.742 448.591 C 482.067 448.266, 481.683 448, 480.887 448 C 480.092 448, 478.793 447.100, 478 446 C 476.118 443.389, 474.608 443.399, 476.239 446.011 M 457.498 446.003 C 456.993 446.820, 457.084 447.066, 457.741 446.660 C 458.318 446.303, 459.048 446.684, 459.364 447.506 C 459.679 448.328, 460.964 448.948, 462.219 448.884 C 464.237 448.781, 464.272 448.710, 462.525 448.267 C 461.439 447.992, 460.045 447.076, 459.428 446.232 C 458.528 445.002, 458.145 444.956, 457.498 446.003 M 303 447 C 303 447.550, 304.125 448, 305.500 448 C 306.875 448, 308 447.550, 308 447 C 308 446.450, 306.875 446, 305.500 446 C 304.125 446, 303 446.450, 303 447 M 937.354 446.687 C 938.359 447.693, 942 447.807, 942 446.833 C 942 446.375, 940.800 446, 939.333 446 C 937.867 446, 936.976 446.309, 937.354 446.687 M 972 446.894 C 972 447.386, 973.125 447.724, 974.499 447.644 C 977.757 447.456, 977.758 446, 974.500 446 C 973.125 446, 972 446.402, 972 446.894 M 798.389 456.570 C 798.725 457.447, 799 462.653, 799 468.141 C 799 474.538, 799.359 477.896, 800 477.500 C 800.562 477.152, 801 472.359, 801 466.548 C 801 457.967, 800.727 456.109, 799.389 455.596 C 798.209 455.143, 797.941 455.404, 798.389 456.570 M 833.500 457 C 833.160 457.550, 833.332 458, 833.882 458 C 834.432 458, 835.160 457.550, 835.500 457 C 835.840 456.450, 835.668 456, 835.118 456 C 834.568 456, 833.840 456.450, 833.500 457 M 839.405 458.500 C 840.889 459.875, 842.383 461, 842.726 461 C 843.068 461, 842.292 459.875, 841 458.500 C 839.708 457.125, 838.214 456, 837.680 456 C 837.145 456, 837.922 457.125, 839.405 458.500 M 831 463 C 831 464.100, 830.550 465, 830 465 C 829.450 465, 829 465.900, 829 467 C 829 468.100, 829.417 469, 829.927 469 C 830.436 469, 831.011 469.788, 831.203 470.750 C 831.395 471.712, 831.619 469.913, 831.700 466.750 C 831.780 463.587, 831.656 461, 831.423 461 C 831.190 461, 831 461.900, 831 463 M 842.671 464.415 C 842.372 465.194, 842.510 467.106, 842.978 468.665 C 843.766 471.293, 843.834 471.189, 843.914 467.250 C 844.003 462.858, 843.611 461.965, 842.671 464.415 M 810.522 466.770 C 809.627 470.335, 810.637 470.684, 813.358 467.748 L 815.735 465.183 813.438 464.743 C 811.650 464.402, 811.003 464.851, 810.522 466.770 M 819.252 465.163 C 822.146 466.220, 823.612 469.552, 822.706 473.016 C 822.092 475.366, 823.515 475.705, 824.393 473.418 C 826.102 468.966, 822.963 464.010, 818.500 464.112 C 816.959 464.147, 817.131 464.388, 819.252 465.163 M 811.154 472.512 C 811.344 473.474, 812.625 474.927, 814 475.740 C 816.168 477.023, 816.268 477.024, 814.750 475.749 C 813.788 474.941, 813 473.793, 813 473.199 C 813 472.604, 812.507 471.813, 811.904 471.441 C 811.233 471.026, 810.942 471.442, 811.154 472.512 M 841 473.140 C 841 473.767, 840.212 474.941, 839.250 475.749 C 837.705 477.047, 837.787 477.049, 839.945 475.774 C 842.586 474.213, 843.840 472, 842.083 472 C 841.487 472, 841 472.513, 841 473.140 M 834 476.833 C 834 477.292, 834.655 477.667, 835.456 477.667 C 836.257 477.667, 836.680 477.292, 836.397 476.833 C 836.114 476.375, 835.459 476, 834.941 476 C 834.423 476, 834 476.375, 834 476.833 M 902.282 485.206 C 899.487 486.556, 897.607 492.092, 898.438 496.524 C 899.708 503.292, 908.454 506.529, 914.698 502.542 C 919.996 499.159, 920.816 490.765, 916.260 486.540 C 913.268 483.766, 906.586 483.128, 902.282 485.206 M 329.110 486.396 C 325.089 488.624, 321.816 498, 325.059 498 C 325.641 498, 325.817 498.487, 325.450 499.081 C 325.082 499.676, 326.040 501.476, 327.578 503.081 C 331.691 507.374, 337.741 507.235, 341.945 502.750 C 345.111 499.372, 345.705 498, 344 498 C 343.450 498, 343 497.298, 343 496.441 C 343 495.584, 343.450 495.160, 344 495.500 C 344.550 495.840, 345 495.641, 345 495.059 C 345 494.477, 344.495 494, 343.878 494 C 343.057 494, 343.052 493.642, 343.859 492.670 C 344.703 491.653, 344.233 490.596, 341.862 488.170 C 338.423 484.653, 333.492 483.967, 329.110 486.396 M 1153 504.046 C 1151.550 504.942, 1141.820 508.465, 1131.500 511.830 C 1128.750 512.726, 1126.275 513.713, 1126 514.022 C 1125.725 514.331, 1123.475 515.206, 1121 515.966 C 1118.525 516.726, 1115.375 517.919, 1114 518.615 C 1112.625 519.312, 1109.143 520.618, 1106.262 521.517 C 1099.955 523.487, 1099.484 524.101, 1101.419 527.844 C 1102.245 529.440, 1102.638 531.028, 1102.293 531.373 C 1101.949 531.718, 1102.107 532, 1102.644 532 C 1103.182 532, 1104.198 534.249, 1104.903 536.998 C 1106.666 543.876, 1107.164 544.002, 1116.500 539.925 C 1117.600 539.444, 1121.200 538.080, 1124.500 536.893 C 1127.800 535.705, 1130.950 534.403, 1131.500 533.997 C 1132.050 533.592, 1134.300 532.939, 1136.500 532.545 C 1138.700 532.151, 1142.075 530.998, 1144 529.982 C 1145.925 528.965, 1149.300 527.615, 1151.500 526.981 C 1159.784 524.592, 1162 523.122, 1162 520.012 C 1162 518.420, 1161.601 516.872, 1161.114 516.571 C 1160.627 516.269, 1159.435 513.093, 1158.466 509.512 C 1156.720 503.062, 1155.906 502.248, 1153 504.046 M 88.667 505.667 C 88.300 506.033, 88 507.063, 88 507.955 C 88 508.847, 87.089 511.360, 85.976 513.539 C 84.862 515.717, 83.685 519.156, 83.359 521.180 C 82.772 524.829, 82.804 524.870, 87.133 525.990 C 94.871 527.991, 95.469 528.189, 97.500 529.428 C 98.600 530.099, 104.675 532.360, 111 534.452 C 117.325 536.545, 123.625 538.832, 125 539.534 C 131.358 542.784, 137.035 544.216, 138.557 542.953 C 139.377 542.272, 139.853 541.519, 139.613 541.280 C 139.374 541.041, 140.205 538.518, 141.460 535.673 C 142.715 532.828, 144.039 529.136, 144.402 527.468 C 145.048 524.505, 144.930 524.392, 139.282 522.554 C 134.120 520.874, 131.474 519.873, 124.500 516.961 C 123.400 516.502, 121.375 515.812, 120 515.428 C 118.625 515.044, 117.275 514.454, 117 514.115 C 116.408 513.387, 91.924 505, 90.389 505 C 89.809 505, 89.033 505.300, 88.667 505.667 M 366.211 513.399 C 366.920 514.169, 367.658 514.649, 367.850 514.466 C 368.443 513.902, 366.940 512, 365.902 512 C 365.362 512, 365.501 512.630, 366.211 513.399 M 377.930 515.250 C 373.894 521.679, 376.848 534.154, 382.361 533.960 C 382.987 533.938, 382.262 533.249, 380.750 532.428 C 378.129 531.006, 378 530.587, 378 523.468 C 378 517.333, 378.357 515.643, 380 514 C 381.100 512.900, 381.543 512, 380.985 512 C 380.427 512, 379.052 513.462, 377.930 515.250 M 384.866 513.866 C 388.440 517.440, 388.375 529.707, 384.768 532.256 C 383.813 532.931, 383.870 533.052, 385 532.747 C 390.631 531.226, 390.061 512, 384.385 512 C 383.377 512, 383.508 512.508, 384.866 513.866 M 357.634 515.783 C 356.850 517.052, 357.879 520, 359.107 520 C 360.329 520, 360.240 523.733, 359 524.500 C 358.450 524.840, 358 525.620, 358 526.233 C 358 526.847, 359.042 526.370, 360.314 525.174 C 361.587 523.978, 363.130 523, 363.742 523 C 365.478 523, 368.952 527.962, 368.337 529.564 C 368.034 530.354, 368.284 531, 368.893 531 C 370.534 531, 370.236 526.305, 368.554 525.659 C 367.509 525.258, 367.250 524.051, 367.620 521.302 C 368.031 518.245, 367.912 517.843, 367.016 519.250 C 365.130 522.209, 361.098 521.462, 359.589 517.874 C 358.866 516.154, 357.986 515.213, 357.634 515.783 M 356 528.525 C 356 532.237, 362.982 535.256, 366.668 533.139 C 368.127 532.301, 367.788 532.192, 365 532.605 C 362.180 533.022, 360.966 532.618, 358.750 530.521 C 357.238 529.090, 356 528.192, 356 528.525 M 193 544.500 C 193 545.325, 193.177 546, 193.393 546 C 193.609 546, 194.045 545.325, 194.362 544.500 C 194.678 543.675, 194.501 543, 193.969 543 C 193.436 543, 193 543.675, 193 544.500 M 889.029 548.961 C 888.220 549.473, 887.944 550.253, 888.416 550.696 C 888.888 551.138, 889.475 550.938, 889.720 550.250 C 890.379 548.407, 892.076 548.722, 894.686 551.174 C 897.243 553.577, 897.937 552.080, 895.429 549.571 C 893.663 547.806, 891.223 547.573, 889.029 548.961 M 907.659 550.054 C 904.291 552.703, 902.674 558.596, 903.863 563.887 C 904.797 568.041, 907.563 571.770, 908.796 570.537 C 909.181 570.152, 908.606 569.185, 907.517 568.389 C 904.625 566.274, 904.613 554.948, 907.500 552.058 C 910.060 549.496, 913.793 550.327, 914.626 553.645 C 914.958 554.969, 915.044 558.965, 914.817 562.526 C 914.591 566.087, 914.506 569, 914.629 569 C 915.528 569, 917.999 562.098, 917.996 559.596 C 917.991 555.385, 913.506 548.081, 910.885 548.015 C 910.547 548.007, 909.095 548.924, 907.659 550.054 M 939.042 550.768 C 937.691 552.271, 936.708 554.108, 936.859 554.850 C 937.010 555.593, 936.654 555.904, 936.067 555.541 C 935.386 555.121, 935 556.191, 935 558.500 C 935 560.980, 935.363 561.894, 936.155 561.405 C 936.835 560.984, 937.039 561.128, 936.651 561.755 C 934.893 564.601, 940.266 569, 945.500 569 C 955.254 569, 959.721 557.955, 952.881 550.750 C 949.181 546.853, 942.557 546.861, 939.042 550.768 M 294 550.013 C 294 550.295, 292.988 550.974, 291.750 551.522 C 290.422 552.110, 289.620 553.232, 289.794 554.259 C 289.955 555.217, 289.632 556, 289.075 556 C 288.518 556, 288.350 556.749, 288.701 557.664 C 289.131 558.783, 288.957 559.091, 288.170 558.605 C 287.417 558.140, 287 558.638, 287 560 C 287 561.362, 287.417 561.860, 288.170 561.395 C 288.975 560.897, 289.124 561.235, 288.647 562.477 C 285.876 569.698, 303.033 573.065, 306.196 565.920 C 306.907 564.314, 307.828 563, 308.244 563 C 309.457 563, 309.114 558.514, 307.800 557.200 C 307.140 556.540, 306.993 556, 307.474 556 C 307.955 556, 307.292 554.875, 306 553.500 C 304.708 552.125, 303.055 551, 302.326 551 C 301.597 551, 301 550.663, 301 550.250 C 301 549.837, 299.425 549.500, 297.500 549.500 C 295.575 549.500, 294 549.731, 294 550.013 M 871.933 560.248 C 872.400 572.345, 872.761 571.640, 873.214 557.750 C 873.389 552.394, 873.112 548.999, 872.500 548.998 C 871.867 548.997, 871.659 553.124, 871.933 560.248 M 887.399 558.352 C 887.492 562.752, 887.609 562.967, 888.872 561.065 C 890.616 558.440, 891.798 558.461, 894.139 561.160 C 895.170 562.349, 896.347 562.962, 896.756 562.523 C 897.165 562.085, 896.938 561.525, 896.250 561.280 C 895.563 561.034, 895 560.049, 895 559.090 C 895 557.723, 894.354 557.441, 892.009 557.785 C 889.582 558.142, 888.857 557.786, 888.158 555.899 C 887.487 554.083, 887.320 554.621, 887.399 558.352 M 895.543 554.931 C 895.226 555.443, 895.425 556.144, 895.984 556.490 C 896.543 556.835, 897 556.416, 897 555.559 C 897 553.802, 896.400 553.544, 895.543 554.931 M 894.459 569.067 C 893.433 570.727, 894.354 570.957, 895.789 569.399 C 896.499 568.630, 896.638 568, 896.098 568 C 895.559 568, 894.821 568.480, 894.459 569.067 M 60.638 609.621 C 60.279 612.241, 60.342 614.742, 60.778 615.178 C 61.592 615.992, 70.191 617.576, 89.500 620.469 C 95.550 621.375, 101.281 622.540, 102.236 623.058 C 105.487 624.821, 108 624.196, 108 621.625 C 108 620.319, 108.281 617.844, 108.625 616.125 C 109.199 613.257, 109.033 613, 106.611 613 C 105.160 613, 103.191 612.585, 102.236 612.078 C 101.281 611.571, 92.625 609.955, 83 608.485 C 73.375 607.016, 64.553 605.599, 63.396 605.335 C 61.546 604.914, 61.213 605.432, 60.638 609.621 M 1176.500 606.039 C 1174.300 606.485, 1166.200 607.796, 1158.500 608.953 C 1150.800 610.110, 1143.719 611.494, 1142.764 612.028 C 1141.809 612.563, 1139.891 613, 1138.502 613 C 1136.095 613, 1136.007 613.200, 1136.627 617.250 C 1136.985 619.587, 1137.429 621.676, 1137.614 621.891 C 1138.220 622.599, 1184.138 615.120, 1185.192 614.142 C 1185.573 613.789, 1185.626 611.587, 1185.311 609.250 C 1184.680 604.580, 1184.335 604.454, 1176.500 606.039 M 965 620.059 C 965 620.641, 964.530 620.828, 963.956 620.473 C 962.508 619.578, 959.796 622.025, 960.423 623.660 C 960.706 624.397, 960.501 625, 959.969 625 C 957.885 625, 959.026 633.444, 961.523 636.500 C 963.667 639.124, 964.616 639.500, 969.097 639.500 C 973.661 639.500, 974.517 639.143, 976.954 636.224 C 979.995 632.582, 980.427 626.523, 977.785 624.576 C 976.982 623.984, 976.488 623.015, 976.688 622.422 C 976.888 621.830, 975.894 620.817, 974.479 620.172 C 971.272 618.711, 965 618.636, 965 620.059 M 271.134 620.721 C 269.833 620.968, 268.543 622.031, 268.268 623.085 C 267.992 624.138, 267.153 625, 266.402 625 C 262.925 625, 263.509 634.507, 267.229 638.449 C 269.772 641.145, 277 643.035, 277 641.004 C 277 640.334, 277.639 640.031, 278.421 640.331 C 279.202 640.631, 281.002 639.801, 282.421 638.486 C 285.763 635.388, 286.092 627.532, 283.033 623.861 C 281.952 622.562, 281.052 621.870, 281.033 622.321 C 281.015 622.773, 280.293 622.436, 279.429 621.571 C 277.888 620.031, 275.866 619.824, 271.134 620.721 M 324.058 625.196 C 317.205 633.852, 325.569 649.138, 333.245 641.986 C 336.739 638.731, 337.040 628.225, 333.741 624.666 C 330.469 621.135, 327.128 621.317, 324.058 625.196 M 326.485 624.387 C 324.926 625.528, 324.588 627.059, 324.588 633 C 324.588 638.941, 324.926 640.472, 326.485 641.613 C 328.927 643.399, 329.270 643.368, 331.847 641.133 C 333.623 639.592, 334 638.169, 334 633 C 334 627.831, 333.623 626.408, 331.847 624.867 C 329.270 622.632, 328.927 622.601, 326.485 624.387 M 265.669 630.250 C 266.536 634.807, 267 634.952, 267 630.667 C 267 628.650, 266.561 627, 266.025 627 C 265.465 627, 265.313 628.383, 265.669 630.250 M 303.085 635 L 303.163 639.500 304.679 636 C 306.512 631.765, 306.010 632.279, 309.002 631.571 C 312.484 630.747, 314.158 632.157, 315.025 636.646 L 315.770 640.500 315.870 637 C 316.024 631.565, 314.823 630.500, 308.534 630.500 L 303.007 630.500 303.085 635 M 305.252 641.269 C 306.322 644.513, 313.247 645.404, 314.383 642.444 C 314.784 641.399, 314.370 641.289, 312.584 641.968 C 311.011 642.566, 309.393 642.398, 307.555 641.444 C 305.563 640.411, 304.954 640.364, 305.252 641.269 M 1076 685 C 1076 685.550, 1076.450 686, 1077 686 C 1077.550 686, 1078 685.550, 1078 685 C 1078 684.450, 1077.550 684, 1077 684 C 1076.450 684, 1076 684.450, 1076 685 M 969.564 696.047 C 963.231 702.500, 968.014 714.323, 976.772 713.864 C 984.318 713.468, 986.959 710.529, 986.986 702.497 C 987.017 693.647, 975.943 689.547, 969.564 696.047 M 264.284 695.116 C 263.670 695.730, 262.118 696.753, 260.834 697.391 C 258.965 698.320, 258.395 699.590, 257.973 703.763 C 257.280 710.622, 258.152 712.619, 262.661 714.503 C 268.607 716.987, 278.614 713.692, 275.767 710.186 C 274.695 708.865, 274.769 708.726, 276.250 709.281 C 277.736 709.838, 278 709.328, 278 705.903 C 278 700.456, 276.697 698.384, 271.782 696.009 C 267.010 693.703, 265.836 693.564, 264.284 695.116 M 914 695 C 914 695.550, 914.450 696, 915 696 C 915.550 696, 916 695.550, 916 695 C 916 694.450, 915.550 694, 915 694 C 914.450 694, 914 694.450, 914 695 M 919 695.031 C 919 695.599, 919.672 696.321, 920.494 696.636 C 921.316 696.952, 921.796 697.521, 921.560 697.903 C 921.325 698.284, 921.545 699.249, 922.051 700.048 C 922.773 701.190, 922.973 701.035, 922.985 699.321 C 922.993 698.123, 922.293 696.436, 921.429 695.571 C 919.595 693.738, 919 693.605, 919 695.031 M 931.660 695.823 C 929.644 698.051, 928.612 705.449, 929.761 709.432 C 930.227 711.045, 931.795 713.251, 933.247 714.335 C 935.762 716.213, 936.008 716.225, 938.497 714.594 C 939.933 713.653, 941.341 712.122, 941.627 711.192 C 941.912 710.261, 942.563 708.719, 943.073 707.764 C 944.447 705.190, 944.226 703.459, 941.890 698.489 C 940.012 694.495, 937 692.345, 937 695 C 937 695.550, 937.623 696, 938.383 696 C 940.054 696, 940.968 699.050, 940.986 704.685 C 941.006 710.721, 939.520 714.003, 936.775 713.985 C 932.619 713.957, 931.625 712.474, 931.191 705.654 C 930.831 700.001, 931.048 698.939, 932.889 697.363 C 934.050 696.369, 935 695.206, 935 694.778 C 935 693.424, 933.370 693.934, 931.660 695.823 M 903.195 699.500 C 903.215 701.150, 903.439 701.704, 903.693 700.731 C 903.947 699.758, 903.930 698.408, 903.656 697.731 C 903.382 697.054, 903.175 697.850, 903.195 699.500 M 1087 703 C 1087 706.333, 1087.444 709, 1088 709 C 1088.556 709, 1089 706.333, 1089 703 C 1089 699.667, 1088.556 697, 1088 697 C 1087.444 697, 1087 699.667, 1087 703 M 212.300 703 C 212.300 706.025, 212.487 707.263, 212.716 705.750 C 212.945 704.237, 212.945 701.763, 212.716 700.250 C 212.487 698.737, 212.300 699.975, 212.300 703 M 910.843 704.584 C 911.031 707.565, 911.532 709.789, 911.956 709.527 C 913.146 708.792, 912.868 701.136, 911.614 700.092 C 910.812 699.424, 910.596 700.684, 910.843 704.584 M 1135 709.500 L 1135 720 1164.500 720 L 1194 720 1194 709.500 L 1194 699 1164.500 699 L 1135 699 1135 709.500 M 52.667 700.667 C 52.300 701.033, 52 705.983, 52 711.667 L 52 722 81.393 722 C 107.273 722, 110.859 721.811, 111.393 720.418 C 111.727 719.548, 112 714.871, 112 710.025 C 112 702.913, 111.695 701.097, 110.418 700.607 C 108.255 699.777, 53.500 699.834, 52.667 700.667 M 921.583 709.866 C 921.152 710.563, 921.070 711.403, 921.400 711.733 C 922.295 712.628, 923.271 711.312, 922.787 709.862 C 922.449 708.846, 922.213 708.846, 921.583 709.866 M 913.500 714 C 915.643 716.368, 917.894 716.542, 920.559 714.546 C 922.350 713.204, 922.219 713.135, 918.877 713.656 C 916.706 713.994, 914.979 713.776, 914.568 713.110 C 914.191 712.500, 913.389 712, 912.786 712 C 912.183 712, 912.505 712.900, 913.500 714 M 1071 716 C 1071 716.550, 1071.450 717, 1072 717 C 1072.550 717, 1073 716.550, 1073 716 C 1073 715.450, 1072.550 715, 1072 715 C 1071.450 715, 1071 715.450, 1071 716 M 1076 721 C 1076 721.550, 1076.450 722, 1077 722 C 1077.550 722, 1078 721.550, 1078 721 C 1078 720.450, 1077.550 720, 1077 720 C 1076.450 720, 1076 720.450, 1076 721 M 316.113 768.186 C 315.616 769.507, 315.620 770.643, 316.122 770.833 C 316.605 771.017, 317 773.154, 317 775.583 C 317 779.973, 316.978 780, 313.465 780 C 310.110 780, 309.991 779.885, 311.128 777.750 C 311.787 776.513, 313.041 774.952, 313.913 774.282 C 314.786 773.612, 315.016 773.049, 314.424 773.032 C 312.934 772.988, 309.368 777.042, 308.565 779.694 C 307.947 781.734, 308.203 781.875, 312.200 781.694 C 316.290 781.510, 316.516 781.647, 316.827 784.500 C 317.323 789.050, 319 790.040, 319 785.783 C 319 783.794, 319.563 781.940, 320.250 781.662 C 321.250 781.259, 321.250 781.142, 320.250 781.079 C 319.378 781.024, 319 778.903, 319 774.059 C 319 766.896, 317.639 764.127, 316.113 768.186 M 336 767.449 C 336 767.831, 336.675 768.818, 337.500 769.643 C 338.325 770.468, 339 770.716, 339 770.194 C 339 769.672, 338.325 768.685, 337.500 768 C 336.675 767.315, 336 767.067, 336 767.449 M 963.652 768.924 C 961.919 769.791, 960.488 771.175, 960.474 772 C 960.459 772.825, 960.147 773.978, 959.781 774.561 C 958.629 776.397, 959.740 783.055, 961.528 785.031 C 963.817 787.560, 970.259 789.722, 970.787 788.138 C 970.998 787.505, 971.582 787.242, 972.085 787.553 C 972.588 787.864, 973 787.641, 973 787.059 C 973 786.477, 973.870 786, 974.933 786 C 975.996 786, 977.151 785.100, 977.500 784 C 977.849 782.900, 978.442 782, 978.817 782.001 C 979.193 782.001, 979.450 780.198, 979.389 777.994 C 979.159 769.650, 971.283 765.111, 963.652 768.924 M 271.329 769.805 C 265.011 771.827, 262.727 782.164, 267.600 786.680 C 272.210 790.953, 279.053 791.006, 282.972 786.799 C 286.011 783.538, 285.822 775.121, 282.643 772.135 C 280.115 769.759, 274.856 768.677, 271.329 769.805 M 329.345 770.543 C 329.019 771.392, 328.976 772.310, 329.249 772.583 C 329.523 772.856, 329.986 772.161, 330.279 771.040 C 330.903 768.657, 330.210 768.289, 329.345 770.543 M 339.630 773.250 C 338.783 776.413, 338.883 781.268, 339.828 782.756 C 340.271 783.454, 340.625 781.123, 340.625 777.506 C 340.625 770.365, 340.522 769.923, 339.630 773.250 M 337.149 785.667 C 336.406 786.472, 336.005 787.338, 336.257 787.590 C 336.509 787.842, 337.293 787.352, 338 786.500 C 339.669 784.489, 338.916 783.751, 337.149 785.667 M 97.872 797.017 C 95.326 797.447, 92.318 798.295, 91.187 798.900 C 90.057 799.505, 86.739 800.011, 83.816 800.024 C 80.892 800.037, 76.700 800.521, 74.500 801.099 C 72.300 801.677, 69.292 802.111, 67.816 802.064 C 66.339 802.017, 64.850 802.433, 64.507 802.989 C 64.163 803.545, 62.993 804, 61.907 804 C 60.105 804, 59.990 804.462, 60.601 809.250 C 60.969 812.138, 61.436 814.688, 61.637 814.918 C 61.838 815.148, 64.140 814.786, 66.751 814.113 C 73.997 812.246, 81.072 811.019, 85.500 810.861 C 87.700 810.783, 89.950 810.385, 90.500 809.978 C 91.050 809.570, 95.438 808.687, 100.250 808.015 C 109.776 806.685, 109.544 806.922, 108.358 799.750 C 107.671 795.594, 107.130 795.453, 97.872 797.017 M 1136.590 800.162 C 1136.224 802.451, 1136.279 804.647, 1136.712 805.041 C 1137.146 805.435, 1142.675 806.508, 1149 807.426 C 1155.325 808.344, 1161.400 809.472, 1162.500 809.932 C 1164.969 810.966, 1184.118 813.216, 1184.783 812.550 C 1185.049 812.285, 1185.319 810.380, 1185.383 808.317 C 1185.477 805.296, 1185.111 804.502, 1183.500 804.232 C 1182.400 804.048, 1180.575 803.441, 1179.445 802.884 C 1178.314 802.326, 1176.964 801.989, 1176.445 802.133 C 1175.925 802.278, 1174.530 802.065, 1173.344 801.661 C 1172.158 801.256, 1167.433 800.520, 1162.844 800.025 C 1158.255 799.531, 1151.350 798.439, 1147.500 797.600 C 1137.355 795.388, 1137.353 795.388, 1136.590 800.162 M 906.371 834.804 C 904.196 836.216, 903 840.016, 903 845.511 C 903 850.414, 903.383 851.537, 905.923 854.077 C 909.466 857.619, 910.030 857.661, 912.912 854.594 C 916.007 851.299, 916.935 841.709, 914.596 837.186 C 913.690 835.434, 912.510 834, 911.974 834 C 910.450 834, 910.833 835.722, 912.500 836.362 C 914.402 837.091, 914.655 850.945, 912.800 852.800 C 911.234 854.366, 907.513 854.338, 906.253 852.750 C 903.583 849.386, 904.203 837.729, 907.149 835.908 C 907.860 835.468, 908.217 834.884, 907.942 834.609 C 907.667 834.334, 906.960 834.422, 906.371 834.804 M 875.695 836.639 C 874.657 837.676, 874.856 843, 875.933 843 C 877.340 843, 878.240 839.252, 877.256 837.492 C 876.779 836.641, 876.077 836.257, 875.695 836.639 M 940.385 840.216 C 936.373 843.297, 936.033 843.950, 936.015 848.615 C 935.986 856.460, 943.069 860.782, 951.431 858.023 C 955.253 856.761, 956.018 855.259, 956.414 848.242 C 956.641 844.233, 956.267 843.113, 953.917 840.763 C 950.368 837.214, 944.597 836.980, 940.385 840.216 M 294.399 840.256 C 293.904 840.672, 292.459 841.802, 291.187 842.766 C 288.732 844.628, 286.758 853, 288.775 853 C 289.346 853, 289.594 853.835, 289.328 854.855 C 288.295 858.803, 300.137 862.904, 303.460 859.750 C 304.184 859.063, 305.727 857.717, 306.888 856.760 C 309.495 854.612, 310.010 846, 307.531 846 C 306.708 846, 306.291 845.406, 306.582 844.648 C 307.713 841.700, 297.191 837.907, 294.399 840.256 M 895 841.441 C 895 842.298, 895.450 843, 896 843 C 896.550 843, 897 842.577, 897 842.059 C 897 841.541, 896.550 840.840, 896 840.500 C 895.450 840.160, 895 840.584, 895 841.441 M 866.583 853.866 C 866.152 854.563, 866.070 855.403, 866.400 855.733 C 867.295 856.628, 868.271 855.312, 867.787 853.862 C 867.449 852.846, 867.213 852.846, 866.583 853.866 M 885.583 853.866 C 885.152 854.563, 885.070 855.403, 885.400 855.733 C 886.295 856.628, 887.271 855.312, 886.787 853.862 C 886.449 852.846, 886.213 852.846, 885.583 853.866 M 243.310 868.500 C 243.315 871.800, 243.502 873.029, 243.725 871.232 C 243.947 869.435, 243.943 866.735, 243.715 865.232 C 243.486 863.729, 243.304 865.200, 243.310 868.500 M 1038.158 870 C 1038.158 871.375, 1038.385 871.938, 1038.662 871.250 C 1038.940 870.563, 1038.940 869.438, 1038.662 868.750 C 1038.385 868.063, 1038.158 868.625, 1038.158 870 M 1105.991 879.250 C 1105.260 881.587, 1103.881 885.300, 1102.926 887.500 C 1099.632 895.094, 1099.653 895.137, 1108.497 898.219 C 1112.896 899.752, 1117.846 901.626, 1119.497 902.384 C 1121.149 903.141, 1124.975 904.521, 1128 905.452 C 1131.025 906.382, 1134.400 907.529, 1135.500 908.002 C 1136.600 908.474, 1139.300 909.410, 1141.500 910.082 C 1143.700 910.754, 1146.441 911.915, 1147.592 912.663 C 1148.743 913.411, 1151.399 914.131, 1153.495 914.262 C 1156.794 914.468, 1157.405 914.164, 1158.040 912 C 1158.443 910.625, 1159.344 908.150, 1160.040 906.500 C 1163.823 897.543, 1163.461 896.040, 1157 893.884 C 1153.975 892.874, 1150.707 891.580, 1149.738 891.008 C 1148.769 890.436, 1145.844 889.270, 1143.238 888.417 C 1140.632 887.563, 1137.082 886.220, 1135.349 885.433 C 1133.616 884.645, 1131.742 884, 1131.185 884 C 1129.906 884, 1112.095 877.351, 1109.764 876.004 C 1107.359 874.614, 1107.471 874.517, 1105.991 879.250 M 133.416 878.493 C 131.170 879.199, 127.933 880.500, 126.223 881.385 C 124.512 882.269, 121.400 883.260, 119.306 883.587 C 117.213 883.914, 114.825 884.730, 114 885.401 C 113.175 886.072, 109.800 887.431, 106.500 888.422 C 103.200 889.414, 100.050 890.583, 99.500 891.021 C 98.950 891.460, 95.575 892.792, 92 893.983 C 83.129 896.937, 82.058 898.084, 84.277 902.259 C 85.224 904.041, 86.692 907.862, 87.538 910.750 C 89.452 917.276, 92.050 917.375, 104.789 911.409 C 106.598 910.562, 110.423 909.177, 113.289 908.332 C 116.155 907.487, 118.950 906.444, 119.500 906.013 C 120.050 905.583, 122.075 904.903, 124 904.502 C 125.925 904.101, 129.750 902.731, 132.500 901.457 C 135.250 900.184, 139.192 898.834, 141.261 898.458 C 146.137 897.571, 146.203 897.386, 143.984 890.954 C 138.708 875.661, 139.490 876.583, 133.416 878.493 M 374.269 898.693 C 375.242 898.947, 376.592 898.930, 377.269 898.656 C 377.946 898.382, 377.150 898.175, 375.500 898.195 C 373.850 898.215, 373.296 898.439, 374.269 898.693 M 395.741 898.705 C 403.100 900.124, 402.896 917.542, 395.500 919.294 C 393.614 919.741, 393.622 919.775, 395.639 919.884 C 400.033 920.122, 402.353 916.827, 402.806 909.700 C 403.188 903.700, 403.003 902.912, 400.658 900.567 C 399.235 899.144, 397.068 898.061, 395.795 898.136 L 393.500 898.272 395.741 898.705 M 381.158 903 C 381.158 904.375, 381.385 904.938, 381.662 904.250 C 381.940 903.563, 381.940 902.438, 381.662 901.750 C 381.385 901.063, 381.158 901.625, 381.158 903 M 391 902.500 C 391 903.325, 390.550 904, 390 904 C 389.450 904, 389 906.250, 389 909 C 389 911.989, 389.445 914, 390.107 914 C 390.716 914, 390.997 914.565, 390.732 915.255 C 390.467 915.946, 390.920 917.136, 391.739 917.901 C 393.039 919.116, 393.118 918.989, 392.364 916.896 C 391.889 915.578, 391.514 911.462, 391.532 907.750 C 391.549 904.038, 391.437 901, 391.282 901 C 391.127 901, 391 901.675, 391 902.500 M 903.775 904.559 C 894.602 909.537, 898.985 923.984, 909.673 923.995 C 917.669 924.004, 922.479 915.535, 918.917 907.718 C 916.978 903.461, 908.902 901.776, 903.775 904.559 M 332.500 904.705 C 331.400 904.998, 329.210 906.585, 327.633 908.232 C 325.098 910.879, 324.826 911.762, 325.284 915.831 C 325.990 922.093, 329.347 925, 335.875 925 C 342.202 925, 345.415 921.649, 345.559 914.904 C 345.720 907.334, 339.846 902.747, 332.500 904.705 M 371.211 918.611 C 370.118 919.788, 370.959 919.972, 376.711 919.820 C 382.698 919.661, 382.912 919.594, 378.519 919.256 C 375.780 919.044, 373.305 918.500, 373.019 918.046 C 372.734 917.593, 371.920 917.847, 371.211 918.611 M 164.509 969.312 C 158.857 972.685, 152.274 976.666, 150.500 977.787 C 149.400 978.481, 146.475 980.001, 144 981.163 C 141.525 982.325, 139.140 983.889, 138.700 984.638 C 138.260 985.387, 137.423 986, 136.840 986 C 135.637 986, 126 992.073, 126 992.831 C 126 993.102, 127.144 995.276, 128.542 997.662 C 131.109 1002.041, 132.349 1002.862, 133.525 1000.959 C 134.333 999.652, 140.699 995.612, 148.500 991.456 C 151.800 989.698, 156.075 987.312, 158 986.154 C 159.925 984.996, 163.604 982.922, 166.176 981.545 C 171.777 978.546, 172.821 976.090, 170.317 971.803 C 168.165 968.118, 167.203 967.706, 164.509 969.312 M 1074.588 971.737 C 1072.924 975.227, 1072.918 975.542, 1074.487 976.487 C 1075.412 977.044, 1077.114 978.300, 1078.269 979.277 C 1079.424 980.255, 1081.411 981.316, 1082.684 981.636 C 1083.958 981.955, 1085 982.597, 1085 983.062 C 1085 983.526, 1086.912 984.815, 1089.250 985.925 C 1094.807 988.565, 1104.029 993.754, 1105.969 995.332 C 1106.811 996.018, 1109.261 997.377, 1111.413 998.351 L 1115.327 1000.123 1117.627 997.312 C 1120.246 994.112, 1120.641 992, 1118.622 992 C 1117.865 992, 1116.680 991.320, 1115.990 990.488 C 1115.300 989.657, 1112.883 988.075, 1110.618 986.974 C 1108.353 985.872, 1104.025 983.414, 1101 981.512 C 1097.975 979.609, 1093.700 977.114, 1091.500 975.965 C 1084.255 972.184, 1080.725 970.125, 1079.655 969.055 C 1077.787 967.187, 1076.411 967.916, 1074.588 971.737 M 322 1008 C 322 1008.550, 322.450 1009, 323 1009 C 323.550 1009, 324 1008.550, 324 1008 C 324 1007.450, 323.550 1007, 323 1007 C 322.450 1007, 322 1007.450, 322 1008 M 935.336 1017 C 935.336 1021.125, 935.513 1022.813, 935.728 1020.750 C 935.944 1018.688, 935.944 1015.313, 935.728 1013.250 C 935.513 1011.188, 935.336 1012.875, 935.336 1017 M 322 1024 C 322 1024.550, 322.450 1025, 323 1025 C 323.550 1025, 324 1024.550, 324 1024 C 324 1023.450, 323.550 1023, 323 1023 C 322.450 1023, 322 1023.450, 322 1024 M 952 1024 C 952 1024.550, 952.450 1025, 953 1025 C 953.550 1025, 954 1024.550, 954 1024 C 954 1023.450, 953.550 1023, 953 1023 C 952.450 1023, 952 1023.450, 952 1024 M 1016.441 1038.717 C 1008.549 1047.848, 1008.518 1048.018, 1013.894 1052.586 C 1016.427 1054.739, 1020.008 1057.963, 1021.850 1059.750 C 1023.692 1061.537, 1025.404 1063, 1025.654 1063 C 1026.231 1063, 1039.675 1074.257, 1043.011 1077.534 C 1044.392 1078.890, 1045.820 1080, 1046.184 1080 C 1046.548 1080, 1048.196 1081.350, 1049.846 1083 C 1051.496 1084.650, 1053.265 1086, 1053.777 1086 C 1055.258 1086, 1062.517 1078.303, 1065.364 1073.714 C 1067.037 1071.018, 1067.019 1070.835, 1064.796 1068.020 C 1063.533 1066.420, 1062.050 1065.079, 1061.500 1065.040 C 1060.950 1065, 1057.800 1062.501, 1054.500 1059.485 C 1051.200 1056.470, 1048.178 1054.002, 1047.784 1054.001 C 1047.099 1054, 1043.342 1050.727, 1037.989 1045.467 C 1036.608 1044.110, 1035.166 1043, 1034.785 1043 C 1034.403 1043, 1033.023 1041.987, 1031.718 1040.750 C 1027.602 1036.847, 1022.821 1033, 1022.088 1033 C 1021.699 1033, 1019.158 1035.573, 1016.441 1038.717 M 219 1038 C 216.617 1040.200, 214.375 1042, 214.018 1042 C 213.660 1042, 211.985 1043.463, 210.296 1045.250 C 208.606 1047.037, 205.347 1049.850, 203.054 1051.500 C 200.761 1053.150, 197.711 1055.737, 196.277 1057.250 C 194.843 1058.763, 193.373 1060, 193.011 1060 C 191.658 1060, 180 1071.370, 180 1072.689 C 180 1073.445, 180.675 1074.322, 181.500 1074.638 C 182.325 1074.955, 183 1075.643, 183 1076.167 C 183 1076.690, 184.670 1079.117, 186.712 1081.560 C 192.475 1088.454, 192.201 1088.565, 212 1071.375 C 217.733 1066.397, 224.749 1060.148, 226.736 1058.250 C 228.031 1057.013, 229.322 1056, 229.604 1056 C 229.886 1056, 231.839 1054.616, 233.944 1052.924 C 237.685 1049.918, 237.739 1049.783, 236.312 1046.924 C 235.510 1045.316, 234.540 1044, 234.157 1044 C 233.774 1044, 231.678 1041.750, 229.500 1039 C 227.322 1036.250, 225.043 1034, 224.436 1034 C 223.829 1034, 221.383 1035.800, 219 1038 " stroke="none" fill="#02aa9b" fill-rule="evenodd"/>
</svg>